<?xml version="1.0" encoding="utf-8"?>
<!-- Svg Vector Icons : http://www.onlinewebfonts.com/icon -->
<!DOCTYPE svg PUBLIC "-//W3C//DTD SVG 1.1//EN" "http://www.w3.org/Graphics/SVG/1.1/DTD/svg11.dtd">
<svg version="1.1" xmlns="http://www.w3.org/2000/svg" xmlns:xlink="http://www.w3.org/1999/xlink" x="0px" y="0px" viewBox="0 0 1000 1000" enable-background="new 0 0 1000 1000" xml:space="preserve">
<metadata> Svg Vector Icons : http://www.onlinewebfonts.com/icon </metadata>
<g><path d="M368.8,210.4c0.1-47.8,39.8-86.6,88.7-86.7H556c49,0.1,88.6,38.8,88.7,86.7v97.1h116.4v-97.1C761.1,99.7,669.3,10,556,10h-98.5c-113.2,0-205,89.7-205,200.4v97.1h116.3L368.8,210.4L368.8,210.4z M141.2,368v318.1C141.2,854,280.4,990,452.2,990h95.7c171.7,0,310.9-136,310.9-303.8V368H141.2z M545.5,651.1v139.1c0,16.7-13.9,30.3-31,30.3c-17.1,0-31-13.6-31-30.3V651c-29.2-11.9-49.8-40.1-49.8-73c0-43.7,36.2-79,80.9-79c44.7,0,80.9,35.4,80.9,79C595.6,611,574.9,639.2,545.5,651.1z"/></g>
</svg>